# xmcd CD database file
#
# Track frame offsets:
#	150
#	20027
#	37225
#	62567
#	84197
#	101452
#	115820
#	131372
#	156745
#	172967
#	184550
#	203977
#	246490
#	268442
#	286212
#
# Disc length: 4005 seconds
#
# Revision: 4
# Processed by: cddbd v1.5.2PL0 Copyright (c) Steve Scherf et al.
# Submitted via: CDex 1.51
#
DISCID=da0fa30f
DTITLE=G. Love and Special Sauce - Yeah, It's That Easy
DYEAR=1997
DGENRE=Blues Rock
TTITLE0=Stepping Stones
TTITLE1=I-76
TTITLE2=Lay Down The Law
TTITLE3=Slipped Away (The Ballad Of Lauretha Vaird)
TTITLE4=You Shall See
TTITLE5=Take You There
TTITLE6=Willow Tree
TTITLE7=Yeah, It's That Easy
TTITLE8=Recipe
TTITLE9=200 Years
TTITLE10=Making Amends
TTITLE11=Pull The Wool
TTITLE12=When We Meet Again
TTITLE13=Ma Mere
TTITLE14=All The People
EXTD=YEAR: 1997
EXTT0=
EXTT1=
EXTT2=
EXTT3=
EXTT4=
EXTT5=
EXTT6=
EXTT7=
EXTT8=
EXTT9=
EXTT10=
EXTT11=
EXTT12=
EXTT13=
EXTT14=
PLAYORDER=
